# This file uses centimeters as units for non-parametric coordinates.

mtllib antorcha_para_texturas.mtl
g default
v 0.100413 0.233124 0.190797
v 0.142005 0.267136 0.096320
v 0.100413 0.301147 0.001842
v -0.000000 0.315235 -0.037292
v -0.100414 0.301147 0.001842
v -0.142006 0.267136 0.096320
v -0.100414 0.233124 0.190797
v 0.000000 0.219036 0.229932
v -0.000000 0.000001 0.000153
v 0.368349 4.770111 0.416587
v 0.520924 4.770111 0.048236
v 0.368349 4.770111 -0.320113
v -0.000000 4.770111 -0.472689
v -0.368350 4.770111 -0.320113
v -0.520925 4.770111 0.048236
v -0.368350 4.770111 0.416587
v 0.000000 4.770111 0.569161
v 0.295487 4.896248 0.343724
v 0.417882 4.896248 0.048236
v 0.295487 4.896248 -0.247250
v -0.000000 4.896248 -0.369645
v -0.295488 4.896248 -0.247250
v -0.417882 4.896248 0.048236
v -0.295488 4.896248 0.343724
v 0.000000 4.896248 0.466118
v -0.000000 4.896249 0.048236
v -0.349575 2.298861 0.049517
v -0.247197 2.299007 -0.197708
v -0.000000 2.299007 -0.300104
v 0.247196 2.299007 -0.197708
v 0.349574 2.298861 0.049517
v 0.247183 2.298801 0.296720
v 0.000000 2.298801 0.399112
v -0.247184 2.298801 0.296720
v -0.545481 3.300748 0.048236
v -0.385713 3.300748 -0.337478
v -0.000000 3.300748 -0.497244
v 0.385714 3.300748 -0.337478
v 0.545480 3.300748 0.048236
v 0.385714 3.300748 0.433950
v 0.000000 3.300748 0.593717
v -0.385714 3.300748 0.433950
v -0.341244 3.802212 0.048236
v -0.241296 3.802212 -0.193059
v -0.000000 3.802212 -0.293007
v 0.241296 3.802212 -0.193059
v 0.341243 3.802212 0.048236
v 0.241296 3.802212 0.289531
v 0.000000 3.802212 0.389478
v -0.241296 3.802212 0.289531
v 0.384061 4.304128 0.432298
v 0.543145 4.304128 0.048236
v 0.384061 4.304128 -0.335826
v -0.000000 4.304128 -0.494909
v -0.384062 4.304128 -0.335826
v -0.543145 4.304128 0.048236
v -0.384062 4.304128 0.432298
v 0.000000 4.304128 0.591381
v -0.250161 1.296591 0.249812
v -0.176876 1.296315 0.072928
v -0.000000 1.296314 -0.000338
v 0.176876 1.296315 0.072930
v 0.250161 1.296591 0.249812
v 0.176909 1.296933 0.426727
v 0.000000 1.296933 0.500008
v -0.176909 1.296933 0.426727
vt 0.401687 0.048245
vt 0.392901 0.015354
vt 0.470555 0.046805
vt 0.426972 0.067085
vt 0.458054 0.075250
vt 0.485855 0.087641
vt 0.516531 0.088658
vt 0.544371 0.070100
vt 0.560347 0.035804
vt 1.000000 0.244432
vt 0.103505 0.411886
vt 0.962094 0.592311
vt 0.903186 0.498987
vt 0.227020 0.490469
vt 0.937759 0.699955
vt 0.370726 0.536282
vt 0.844435 0.758863
vt 0.521773 0.539067
vt 0.736790 0.734527
vt 0.665081 0.501882
vt 0.677882 0.641204
vt 0.792192 0.435010
vt 0.702218 0.533559
vt 0.902469 0.348554
vt 0.795542 0.474651
vt 0.819988 0.616757
vt 0.607840 0.331203
vt 0.505577 0.362532
vt 0.489730 0.269114
vt 0.566547 0.243696
vt 0.627122 0.396524
vt 0.509087 0.427918
vt 0.399492 0.362340
vt 0.411178 0.267037
vt 0.298977 0.323949
vt 0.337951 0.235627
vt 0.212091 0.254726
vt 0.275769 0.178712
vt 0.877585 0.109350
vt 0.784324 0.052557
vt 0.786774 0.200290
vt 0.723836 0.131293
vt 0.701470 0.275652
vt 0.644823 0.197422
vt 0.386634 0.425312
vt 0.270992 0.386255
vt 0.171343 0.321321
vt 0.093151 0.249905
vt 0.825171 0.263669
vt 0.733647 0.338874
vt 0.976652 0.218118
vt 0.123105 0.383088
vt 0.239258 0.458155
vt 0.374214 0.502109
vt 0.516408 0.505121
vt 0.651978 0.469974
vt 0.773006 0.406158
vt 0.878936 0.323561
vt 0.582289 0.152608
vt 0.512043 0.160256
vt 0.433963 0.144842
vt 0.360109 0.116579
vt 0.302840 0.071461
vt 0.692205 0.022038
vt 0.667063 0.078136
vt 0.633086 0.122651
vt 0.021711 0.285585
vt 0.898493 0.188809
vt 0.224907 0.102257
vt 0.270003 0.011181
vt 0.924330 0.468945
vt -0.000000 0.314762
vt 0.556334 0.000000
vt 0.121731 0.154487
vt 0.789251 0.438457
vt 0.672176 0.512415
vt 0.641688 0.647495
vt 0.715645 0.764569
vt 0.850726 0.795058
vt 0.967800 0.721100
vt 0.998288 0.586020
vn 0.987377 -0.115554 -0.108325
vn 0.732782 -0.228633 0.640904
vn 0.000000 -0.683532 -0.729921
vn 0.894776 -0.078912 -0.439487
vn -0.000000 -0.117955 -0.993019
vn -0.894776 -0.078912 -0.439486
vn -0.987377 -0.115554 -0.108326
vn -0.732781 -0.228633 0.640905
vn 0.000001 -0.277090 0.960844
vn 0.737429 0.602410 0.305452
vn 0.737429 0.602410 0.305452
vn 0.737429 0.602410 0.305452
vn 0.737429 0.602410 0.305452
vn 0.737428 0.602410 -0.305454
vn 0.737428 0.602410 -0.305454
vn 0.737428 0.602410 -0.305454
vn 0.737428 0.602410 -0.305454
vn 0.305454 0.602414 -0.737425
vn 0.305454 0.602414 -0.737425
vn 0.305454 0.602414 -0.737425
vn 0.305454 0.602414 -0.737425
vn -0.305453 0.602415 -0.737425
vn -0.305453 0.602415 -0.737425
vn -0.305453 0.602415 -0.737425
vn -0.305453 0.602415 -0.737425
vn -0.737427 0.602413 -0.305451
vn -0.737427 0.602413 -0.305451
vn -0.737427 0.602413 -0.305451
vn -0.737427 0.602413 -0.305451
vn -0.737427 0.602413 0.305450
vn -0.737427 0.602413 0.305450
vn -0.737427 0.602413 0.305450
vn -0.737427 0.602413 0.305450
vn -0.305449 0.602415 0.737426
vn -0.305449 0.602415 0.737426
vn -0.305449 0.602415 0.737426
vn -0.305449 0.602415 0.737426
vn 0.305450 0.602414 0.737426
vn 0.305450 0.602414 0.737426
vn 0.305450 0.602414 0.737426
vn 0.305450 0.602414 0.737426
vn 0.000002 1.000000 -0.000002
vn 0.000002 1.000000 -0.000002
vn 0.000002 1.000000 -0.000002
vn 0.000002 1.000000 -0.000002
vn -0.000002 1.000000 -0.000002
vn -0.000002 1.000000 -0.000002
vn -0.000002 1.000000 -0.000002
vn -0.000002 1.000000 -0.000002
vn -0.000002 1.000000 0.000002
vn -0.000002 1.000000 0.000002
vn -0.000002 1.000000 0.000002
vn -0.000002 1.000000 0.000002
vn 0.000002 1.000000 0.000002
vn 0.000002 1.000000 0.000002
vn 0.000002 1.000000 0.000002
vn 0.000002 1.000000 0.000002
vn -0.923869 -0.004601 -0.382682
vn -0.923872 -0.003860 -0.382683
vn -0.909586 -0.175250 -0.376749
vn -0.909981 -0.172865 -0.376899
vn -0.923876 0.002732 -0.382681
vn -0.923876 0.002732 -0.382681
vn -0.382680 -0.004865 -0.923868
vn -0.382680 -0.004562 -0.923870
vn -0.374418 -0.206771 -0.903912
vn -0.373928 -0.212751 -0.902726
vn 0.382680 -0.004562 -0.923870
vn 0.382680 -0.004865 -0.923868
vn 0.373930 -0.212751 -0.902726
vn 0.374420 -0.206771 -0.903911
vn 0.923873 -0.003860 -0.382681
vn 0.923870 -0.004601 -0.382680
vn 0.909981 -0.172865 -0.376898
vn 0.909587 -0.175251 -0.376748
vn 0.923881 -0.003132 0.382666
vn 0.923879 -0.003887 0.382665
vn 0.918675 -0.106147 0.380486
vn 0.914312 -0.143633 0.378687
vn 0.382687 -0.002822 0.923874
vn 0.382686 -0.003138 0.923873
vn 0.381661 -0.073445 0.921380
vn 0.380730 -0.101178 0.919134
vn -0.382686 -0.003138 0.923873
vn -0.382686 -0.002822 0.923874
vn -0.380729 -0.101178 0.919135
vn -0.381660 -0.073445 0.921380
vn -0.923878 -0.003887 0.382666
vn -0.923881 -0.003132 0.382667
vn -0.914311 -0.143632 0.378688
vn -0.918674 -0.106146 0.380487
vn -0.382680 0.002731 -0.923877
vn -0.382680 0.002731 -0.923877
vn 0.382680 0.002732 -0.923877
vn 0.382680 0.002732 -0.923877
vn 0.923877 0.002732 -0.382681
vn 0.923877 0.002732 -0.382681
vn 0.923876 0.002732 0.382681
vn 0.923876 0.002732 0.382681
vn 0.382681 0.002733 0.923876
vn 0.382681 0.002733 0.923876
vn -0.382681 0.002732 0.923877
vn -0.382681 0.002732 0.923877
vn -0.923877 0.002732 0.382681
vn -0.923876 0.002732 0.382681
vn 0.915885 -0.131267 0.379372
vn 0.915885 -0.131268 0.379372
vn 0.922984 0.044014 0.382312
vn 0.922984 0.044014 0.382312
vn 0.915885 -0.131268 -0.379372
vn 0.915885 -0.131268 -0.379372
vn 0.922984 0.044014 -0.382313
vn 0.922984 0.044014 -0.382313
vn 0.379373 -0.131269 -0.915885
vn 0.379373 -0.131269 -0.915885
vn 0.382314 0.044013 -0.922984
vn 0.382314 0.044013 -0.922984
vn -0.379372 -0.131269 -0.915885
vn -0.379372 -0.131269 -0.915885
vn -0.382313 0.044013 -0.922984
vn -0.382313 0.044013 -0.922984
vn -0.915886 -0.131269 -0.379371
vn -0.915886 -0.131269 -0.379371
vn -0.922985 0.044013 -0.382311
vn -0.922985 0.044013 -0.382311
vn -0.915886 -0.131269 0.379370
vn -0.915886 -0.131268 0.379371
vn -0.922985 0.044012 0.382311
vn -0.922985 0.044012 0.382311
vn -0.379370 -0.131271 0.915885
vn -0.379370 -0.131270 0.915885
vn -0.382311 0.044011 0.922985
vn -0.382311 0.044011 0.922985
vn 0.379371 -0.131271 0.915885
vn 0.379371 -0.131270 0.915885
vn 0.382312 0.044012 0.922985
vn 0.382312 0.044012 0.922985
vn -0.915279 -0.122667 -0.383689
vn -0.915462 -0.120219 -0.384027
vn -0.375339 -0.170000 -0.911164
vn -0.375701 -0.162168 -0.912442
vn -0.376991 0.036011 -0.925517
vn -0.376991 0.036011 -0.925517
vn 0.375706 -0.162168 -0.912440
vn 0.375344 -0.170000 -0.911162
vn 0.376998 0.036012 -0.925514
vn 0.376998 0.036012 -0.925514
vn 0.915462 -0.120219 -0.384028
vn 0.915279 -0.122667 -0.383689
vn 0.923344 -0.063332 0.378714
vn 0.923089 -0.070592 0.378053
vn 0.383693 -0.023177 0.923170
vn 0.383680 -0.032872 0.922881
vn -0.383678 -0.032872 0.922882
vn -0.383691 -0.023177 0.923171
vn -0.923344 -0.063332 0.378716
vn -0.923088 -0.070592 0.378055
s 1
g Antorcha_para_texturas antorcha
usemtl initialShadingGroup
f 2/1/1 1/2/2 9/3/3
f 3/4/4 2/1/1 9/3/3
f 4/5/5 3/4/4 9/3/3
f 5/6/6 4/5/5 9/3/3
f 6/7/7 5/6/6 9/3/3
f 7/8/8 6/7/7 9/3/3
f 8/9/9 7/8/8 9/3/3
f 1/73/2 8/9/9 9/3/3
s off
f 10/71/10 11/81/11 19/12/12 18/13/13
f 11/81/14 12/80/15 20/15/16 19/12/17
f 12/80/18 13/79/19 21/17/20 20/15/21
f 13/79/22 14/78/23 22/19/24 21/17/25
f 14/78/26 15/77/27 23/21/28 22/19/29
f 15/77/30 16/76/31 24/23/32 23/21/33
f 16/76/34 17/75/35 25/25/36 24/23/37
f 17/75/38 10/71/39 18/13/40 25/25/41
f 26/26/42 19/12/43 20/15/44 21/17/45
f 26/26/46 21/17/47 22/19/48 23/21/49
f 26/26/50 23/21/51 24/23/52 25/25/53
f 26/26/54 25/25/55 18/13/56 19/12/57
s 1
f 35/27/58 36/28/59 28/29/60 27/30/61
f 43/31/62 44/32/63 36/28/59 35/27/58
s 3
f 36/28/64 37/33/65 29/34/66 28/29/67
s 4
f 37/33/68 38/35/69 30/36/70 29/34/71
s 1
f 38/35/72 39/37/73 31/38/74 30/36/75
f 39/37/76 40/74/77 32/69/78 31/38/79
f 40/39/80 41/41/81 33/42/82 32/40/83
f 41/41/84 42/43/85 34/44/86 33/42/87
f 42/43/88 35/27/89 27/30/90 34/44/91
s 3
f 44/32/92 45/45/93 37/33/65 36/28/64
s 4
f 45/45/94 46/46/95 38/35/69 37/33/68
s 1
f 46/46/96 47/47/97 39/37/73 38/35/72
f 47/47/98 48/48/99 40/74/77 39/37/76
f 48/68/100 49/49/101 41/41/81 40/39/80
f 49/49/102 50/50/103 42/43/85 41/41/84
f 50/50/104 43/31/105 35/27/89 42/43/88
f 51/67/106 52/52/107 11/11/108 10/72/109
f 52/52/107 51/67/106 48/48/99 47/47/98
f 52/52/110 53/53/111 12/14/112 11/11/113
f 53/53/111 52/52/110 47/47/97 46/46/96
s 4
f 53/53/114 54/54/115 13/16/116 12/14/117
f 54/54/115 53/53/114 46/46/95 45/45/94
s 3
f 54/54/118 55/55/119 14/18/120 13/16/121
f 55/55/119 54/54/118 45/45/93 44/32/92
s 1
f 55/55/122 56/56/123 15/20/124 14/18/125
f 56/56/123 55/55/122 44/32/63 43/31/62
f 56/56/126 57/57/127 16/22/128 15/20/129
f 57/57/127 56/56/126 43/31/105 50/50/104
f 57/57/130 58/58/131 17/24/132 16/22/133
f 58/58/131 57/57/130 50/50/103 49/49/102
f 51/51/134 58/58/135 49/49/101 48/68/100
f 58/58/135 51/51/134 10/10/136 17/24/137
f 59/59/138 60/60/139 5/6/6 6/7/7
f 60/60/139 59/59/138 27/30/61 28/29/60
s 3
f 60/60/140 61/61/141 4/5/142 5/6/143
f 61/61/141 60/60/140 28/29/67 29/34/66
s 4
f 61/61/144 62/62/145 3/4/146 4/5/147
f 62/62/145 61/61/144 29/34/71 30/36/70
s 1
f 62/62/148 63/63/149 2/1/1 3/4/4
f 63/63/149 62/62/148 30/36/75 31/38/74
f 63/63/150 64/70/151 1/2/2 2/1/1
f 64/70/151 63/63/150 31/38/79 32/69/78
f 64/64/152 65/65/153 8/9/9 1/73/2
f 65/65/153 64/64/152 32/40/83 33/42/82
f 65/65/154 66/66/155 7/8/8 8/9/9
f 66/66/155 65/65/154 33/42/87 34/44/86
f 59/59/156 66/66/157 34/44/91 27/30/90
f 66/66/157 59/59/156 6/7/7 7/8/8
